<svg version="1.1" id="Layer_1" xmlns="http://www.w3.org/2000/svg" xmlns:xlink="http://www.w3.org/1999/xlink" x="0px" y="0px"
	 width="100%" viewBox="0 0 500 500" enable-background="new 0 0 500 500" xml:space="preserve">
<path fill="#FFFFFF" opacity="1.000000" stroke="none" 
	d="
M1.000000,96.000000 
	C1.000000,64.341377 1.000000,32.682758 0.999999,1.018104 
	C167.616272,1.012069 334.232544,1.012069 500.924408,1.012069 
	C500.924408,167.573898 500.924408,334.147827 500.924408,500.860901 
	C334.333405,500.860901 167.666718,500.860901 1.000000,500.860901 
	C1.000000,462.914917 1.000000,424.924438 1.468496,386.480988 
	C78.544464,386.031128 155.152039,385.983276 231.759140,386.153564 
	C236.794250,386.164764 238.161255,384.948517 238.127960,379.833282 
	C237.931778,349.694031 238.129562,319.552277 238.508759,289.605530 
	C244.215637,294.990356 249.668488,293.196259 254.936096,289.695526 
	C259.443298,293.552155 264.017975,293.954895 269.016327,291.347717 
	C269.933380,290.869385 271.522125,290.842102 272.428375,291.317169 
	C277.832001,294.149689 282.375824,293.260193 287.110016,289.442566 
	C288.704529,288.156738 292.957245,287.798035 294.294373,288.964752 
	C300.728333,294.578583 307.837646,294.078339 314.959961,291.888245 
	C318.419220,290.824524 320.985992,290.455627 324.430878,292.152161 
	C329.311035,294.555511 334.108215,292.641693 337.436340,288.710205 
	C339.833008,285.878998 341.294739,282.233093 343.033661,278.878113 
	C343.907257,277.192627 344.469025,275.345551 345.252838,273.367065 
	C350.378967,275.787903 347.081635,278.786163 346.409729,281.134125 
	C345.399323,284.665192 344.518585,288.008057 347.544189,290.863953 
	C350.448883,293.605713 353.768524,293.418488 357.305511,291.948303 
	C358.436646,291.478119 359.928619,291.872223 361.255493,291.877502 
	C363.950348,291.888245 366.647491,291.972595 369.338837,291.881989 
	C370.376984,291.847015 371.738464,290.866882 372.379181,291.257599 
	C377.188354,294.190430 381.208130,291.978516 385.975861,290.650360 
	C390.012146,289.525970 395.016907,291.984619 399.618561,292.691772 
	C400.516357,292.829742 401.692413,292.435608 402.463898,291.893677 
	C405.682678,289.632629 408.399689,290.663452 411.807281,291.977814 
	C414.533875,293.029510 418.133331,291.756348 421.349915,291.624939 
	C423.047180,291.555603 424.918152,291.288849 426.426208,291.860992 
	C431.183746,293.666046 435.476410,293.470551 439.516235,290.141815 
	C440.442719,289.378418 441.659760,288.608063 442.796844,288.517670 
	C450.590790,287.898132 454.185974,285.273773 456.750153,278.045990 
	C457.273590,276.570587 457.838989,275.110077 458.385071,273.642700 
	C458.870758,273.613800 459.356415,273.584930 459.842102,273.556030 
	C460.246582,274.835022 461.059021,276.148712 460.953796,277.384277 
	C460.817566,278.984436 459.909241,280.509399 459.404907,282.089600 
	C458.267609,285.652893 458.153412,289.044556 461.598572,291.503540 
	C465.079712,293.988220 468.818451,293.586609 471.704559,290.928375 
	C474.312622,288.526215 476.392487,285.397125 478.119324,282.265472 
	C478.831970,280.973053 478.643616,277.811035 477.774689,277.278503 
	C475.239166,275.724640 473.801880,277.564392 472.584412,279.997803 
	C471.236206,282.692535 469.210541,285.048309 467.479919,287.551697 
	C466.163330,286.254364 465.868805,285.722687 465.989746,285.313873 
	C466.694794,282.930817 467.486298,280.572937 468.269104,278.213348 
	C470.171082,272.479980 469.305847,270.519745 464.155365,267.686493 
	C462.776306,266.927856 461.952393,265.221039 460.657928,264.231781 
	C459.107422,263.046936 456.707062,260.945862 455.779266,261.416962 
	C454.095215,262.272034 451.847839,265.194550 452.264130,266.446686 
	C453.866882,271.266846 451.359070,274.902222 449.542938,278.599091 
	C448.612549,280.493042 446.135742,281.627350 444.357849,283.104950 
	C444.004700,282.706970 443.651520,282.308990 443.298370,281.911011 
	C444.132660,279.962433 445.162170,278.072296 445.766418,276.054810 
	C448.033356,268.485321 442.607422,262.685791 434.820892,264.270905 
	C430.563324,265.137604 427.642242,267.663818 426.105255,271.691956 
	C424.863708,274.945801 424.061920,278.396942 422.540649,281.503784 
	C421.580811,283.464020 419.837128,285.186920 418.079285,286.541840 
	C417.317810,287.128784 415.267273,286.967255 414.480713,286.320496 
	C413.787231,285.750305 413.632690,283.913666 413.945343,282.841949 
	C415.013092,279.181702 416.306580,275.578400 417.713531,272.032532 
	C418.052338,271.178650 419.091278,270.527588 419.929047,269.962280 
	C421.648071,268.802368 423.448853,267.763580 425.216003,266.674927 
	C423.852722,265.419922 422.489441,264.164917 420.960358,262.757263 
	C421.329224,261.606354 421.898804,260.212463 422.214203,258.763245 
	C422.819183,255.983414 426.246613,252.373520 421.670868,250.674011 
	C416.910858,248.906052 416.889862,253.864487 415.588348,256.619019 
	C414.470123,258.985657 413.891083,261.716736 412.351013,263.735321 
	C411.347656,265.050476 409.050842,265.378784 407.333496,266.149170 
	C408.301605,267.553284 409.284973,268.947418 410.220459,270.372955 
	C410.352692,270.574463 410.244720,270.929535 410.259338,271.212891 
	C410.492676,275.731964 404.584747,285.445038 400.332123,286.213013 
	C397.805237,286.669373 394.201385,286.073181 392.406433,284.468506 
	C389.987305,282.305725 394.169220,272.378204 397.978821,270.673035 
	C397.978821,271.751282 397.746979,272.760071 398.029419,273.594910 
	C398.540619,275.105804 399.358643,276.512878 400.048553,277.963287 
	C401.607025,277.014923 403.847900,276.435852 404.597870,275.049957 
	C406.985260,270.638611 404.601288,265.802216 399.799896,264.404816 
	C395.231110,263.075073 390.073517,265.528687 388.017487,270.449158 
	C386.423340,274.264282 385.349854,278.297577 384.058350,282.238281 
	C383.045715,285.327942 381.379913,287.364471 377.044861,286.429016 
	C378.954651,280.794098 380.905304,275.536987 382.458923,270.165070 
	C382.954956,268.449951 382.961212,266.084076 382.101715,264.685852 
	C381.621613,263.904755 378.903931,264.491791 377.194397,264.476349 
	C376.109100,264.466553 374.990601,264.656677 373.943542,264.458496 
	C367.658600,263.268982 364.266327,265.152161 361.998474,271.272156 
	C360.615601,275.003815 359.496094,278.848572 357.869904,282.468048 
	C357.038147,284.319397 355.352081,285.786896 354.052124,287.427856 
	C353.507202,287.109955 352.962280,286.792023 352.417358,286.474121 
	C353.249969,283.884644 354.047089,281.283081 354.922302,278.708069 
	C357.059387,272.420563 356.293701,270.547791 350.481415,267.502472 
	C349.414856,266.943665 348.521851,266.018219 347.623688,265.181549 
	C346.175781,263.832825 344.774811,261.307495 343.382416,261.326752 
	C341.840332,261.348175 340.330200,263.670563 338.541260,265.005127 
	C338.101776,265.047424 337.927155,265.075500 337.427063,264.962036 
	C335.793732,264.357697 334.485870,263.894897 333.209473,263.443237 
	C333.956390,261.198517 334.629395,259.149017 335.320465,257.105652 
	C336.173859,254.582214 337.653961,251.597122 333.901611,250.464233 
	C330.393341,249.405060 329.556458,252.496429 328.657288,255.055511 
	C327.887268,257.246887 327.171509,259.477142 326.150635,261.551880 
	C325.665558,262.537720 324.573944,263.260651 323.670807,263.996765 
	C322.396088,265.035706 320.250885,265.790253 319.962311,267.015900 
	C319.716248,268.061127 321.565430,269.599670 323.010864,271.668823 
	C321.329346,275.417633 319.261871,280.026947 316.848633,285.407074 
	C314.725769,280.654388 313.111908,277.435272 311.875763,274.077148 
	C311.391357,272.761169 311.844360,271.125092 311.708740,269.649689 
	C311.522644,267.625732 311.182709,265.615906 310.908722,263.600037 
	C308.724335,264.167236 305.932159,264.096497 304.503723,265.457245 
	C302.557678,267.311096 301.907471,270.446777 300.240631,272.690338 
	C297.738464,276.058228 294.836273,279.128906 292.104187,282.325989 
	C293.989044,266.828857 293.441437,265.532562 283.490265,263.465454 
	C284.395355,260.610382 285.625397,257.814178 286.055023,254.899963 
	C286.257904,253.523575 284.926849,251.921051 284.290802,250.421005 
	C282.796356,251.131226 280.687439,251.453262 279.940399,252.635681 
	C278.553680,254.830704 277.938263,257.519470 277.043579,260.017670 
	C274.358398,267.515472 271.969543,275.139282 268.830658,282.441193 
	C268.023254,284.319427 264.878510,285.192902 262.807556,286.527985 
	C262.766418,284.444794 262.170227,282.180878 262.779663,280.309540 
	C265.503235,271.946320 268.683380,263.731720 271.403564,255.367477 
	C271.858643,253.968277 271.381836,251.330643 270.386475,250.646866 
	C269.297546,249.898788 267.100952,250.706528 265.398865,250.927261 
	C264.246155,251.076767 262.892120,251.909683 262.007355,251.536911 
	C254.714401,248.464188 247.837738,251.214691 245.044144,258.634491 
	C242.880295,264.381653 240.866867,270.185425 238.530960,275.641785 
	C238.183365,273.497620 238.011444,271.675781 238.010986,269.853882 
	C237.996765,214.032242 237.999374,158.210587 237.999374,102.388947 
	C237.999374,100.449730 237.999390,98.510521 237.999390,96.000000 
	C158.538773,96.000000 79.769386,96.000000 1.000000,96.000000 
M253.817093,198.150528 
	C252.197266,202.684982 250.393158,207.164810 249.026428,211.774323 
	C248.200211,214.560837 247.130432,217.811310 247.860214,220.371567 
	C248.583984,222.910675 251.427521,224.845551 253.328842,227.031052 
	C253.042664,227.159821 252.288513,227.489853 251.542099,227.836563 
	C246.122025,230.354279 244.061722,233.998840 245.631393,238.284500 
	C247.226456,242.639496 251.829956,244.588470 257.244110,243.417603 
	C262.710205,242.235474 264.885925,238.157791 266.787415,233.517609 
	C267.585968,231.568832 268.964600,229.521408 270.655457,228.350327 
	C273.473450,226.398560 276.754974,225.116058 280.057770,223.442047 
	C286.637878,227.289215 289.272552,226.850937 296.059845,222.572876 
	C297.988983,221.356903 302.152496,221.306915 303.889954,222.602127 
	C309.600159,226.858871 311.194977,227.274811 317.490936,223.017868 
	C324.644226,227.838898 330.677155,226.744247 335.089722,219.315125 
	C337.412354,215.404633 338.929840,211.015900 340.810913,206.843124 
	C341.280182,206.745926 341.749481,206.648712 342.218750,206.551514 
	C342.555328,207.896484 343.315186,209.303238 343.129913,210.572021 
	C342.847168,212.508804 341.326263,214.371445 341.393494,216.227081 
	C341.488129,218.837952 341.758667,222.375122 343.417603,223.749176 
	C345.287750,225.298233 349.043701,225.824493 351.516602,225.135208 
	C356.941559,223.623108 359.334534,218.731354 361.030762,213.760635 
	C361.375885,212.749237 360.409149,211.290161 360.047180,210.037445 
	C358.606812,210.471588 356.730377,210.490875 355.829285,211.438065 
	C354.510773,212.824036 354.074219,215.007462 352.919220,216.603043 
	C351.909668,217.997650 350.427063,219.049789 349.153442,220.253235 
	C348.725616,219.943176 348.297791,219.633118 347.869995,219.323074 
	C348.790985,216.594177 349.733704,213.872406 350.628479,211.134918 
	C352.453735,205.550476 351.487335,203.421890 346.300995,200.651520 
	C345.027374,199.971191 344.164307,198.563385 342.982025,197.660934 
	C341.335114,196.403885 339.565460,195.307739 337.848328,194.142715 
	C336.712067,196.279327 334.505096,198.482742 334.633453,200.540436 
	C335.079559,207.690155 331.795868,213.218460 327.974548,218.595612 
	C327.329712,219.503021 325.607239,219.644608 322.990723,220.703156 
	C325.333923,213.988754 327.125977,208.705963 329.029144,203.463516 
	C329.958740,200.902924 330.569580,198.050034 327.275513,197.448349 
	C325.865448,197.190781 323.208191,199.332809 322.414337,201.001434 
	C320.427917,205.176666 319.344543,209.770935 317.582306,214.067230 
	C316.443665,216.843109 315.041016,219.739273 310.054810,219.979080 
	C312.152924,213.999619 314.044098,208.763138 315.817719,203.487152 
	C316.639557,201.042465 317.309723,198.006134 313.934967,197.452408 
	C312.523315,197.220779 310.017914,199.368195 309.147125,201.029938 
	C307.393677,204.375992 306.743713,208.299515 304.996368,211.649933 
	C304.032715,213.497726 301.766754,214.666367 300.087921,216.141205 
	C299.738190,215.729019 299.388428,215.316849 299.038696,214.904663 
	C299.797150,213.102020 301.132080,211.316269 301.185486,209.492966 
	C301.276703,206.378860 301.668640,202.089050 299.910828,200.404175 
	C297.697784,198.282990 293.092133,196.945877 290.180084,197.729065 
	C287.023376,198.578049 284.069305,201.872604 282.056885,204.807022 
	C280.053802,207.727768 279.674347,211.716110 277.928497,214.874527 
	C276.669739,217.151688 274.338196,218.835815 272.485138,220.784454 
	C272.171265,220.447189 271.857361,220.109924 271.543488,219.772659 
	C275.128479,209.692001 278.860565,199.658905 282.150482,189.482849 
	C282.684845,187.830017 281.260315,185.543884 280.741241,183.550491 
	C278.793976,184.606934 276.744720,185.519897 274.952179,186.794022 
	C274.282867,187.269791 274.205719,188.585831 273.870209,189.522903 
	C271.296173,196.712524 268.852844,203.952988 266.081757,211.065781 
	C265.144135,213.472473 263.697815,215.879242 261.880157,217.674728 
	C260.679626,218.860580 258.402496,218.956497 256.607361,219.540375 
	C256.555389,217.691574 255.987518,215.670074 256.538818,214.023224 
	C259.225983,205.996017 262.186127,198.059296 265.107086,190.111679 
	C266.100525,187.408585 266.820343,184.249420 263.321777,183.657227 
	C261.656891,183.375412 258.806396,185.752029 257.680603,187.634613 
	C255.925888,190.568863 255.182556,194.107941 253.817093,198.150528 
M496.059326,194.768402 
	C494.548889,194.281143 493.038452,193.793884 491.528015,193.306625 
	C491.260162,194.521393 490.514526,195.902954 490.863403,196.902466 
	C491.190277,197.838821 493.259430,199.155899 493.548340,198.941238 
	C494.654907,198.119080 495.353394,196.747665 496.059326,194.768402 
z"/>
<path fill="#DCDCDC" opacity="1.000000" stroke="none" 
	d="
M1.000000,96.468658 
	C79.769386,96.000000 158.538773,96.000000 237.999390,96.000000 
	C237.999390,98.510521 237.999374,100.449730 237.999374,102.388947 
	C237.999374,158.210587 237.996765,214.032242 238.010986,269.853882 
	C238.011444,271.675781 238.183365,273.497620 238.521179,276.000092 
	C236.737900,280.841583 235.820328,285.052460 238.194641,289.411346 
	C238.129562,319.552277 237.931778,349.694031 238.127960,379.833282 
	C238.161255,384.948517 236.794250,386.164764 231.759140,386.153564 
	C155.152039,385.983276 78.544464,386.031128 1.468496,386.014008 
	C1.000000,289.645782 1.000000,193.291550 1.000000,96.468658 
M9.998587,349.500000 
	C9.998593,356.997284 10.289599,364.509979 9.893984,371.986328 
	C9.639847,376.789001 11.108792,378.114563 15.951324,378.103485 
	C84.927299,377.946320 153.903946,377.928802 222.879700,378.129608 
	C228.173615,378.145050 229.112259,376.523163 229.104309,371.660706 
	C228.962341,284.857391 228.956573,198.053696 229.116058,111.250435 
	C229.125290,106.225410 227.927246,104.859917 222.798645,104.873573 
	C153.989410,105.056885 85.179520,104.995811 16.369793,104.997223 
	C10.003481,104.997353 9.999307,105.003090 9.999225,111.581284 
	C9.998240,190.554184 9.998585,269.527100 9.998587,349.500000 
z"/>
<path fill="#090909" opacity="1.000000" stroke="none" 
	d="
M238.508759,289.605530 
	C235.820328,285.052460 236.737900,280.841583 238.776794,276.322388 
	C240.866867,270.185425 242.880295,264.381653 245.044144,258.634491 
	C247.837738,251.214691 254.714401,248.464188 262.007355,251.536911 
	C262.892120,251.909683 264.246155,251.076767 265.398865,250.927261 
	C267.100952,250.706528 269.297546,249.898788 270.386475,250.646866 
	C271.381836,251.330643 271.858643,253.968277 271.403564,255.367477 
	C268.683380,263.731720 265.503235,271.946320 262.779663,280.309540 
	C262.170227,282.180878 262.766418,284.444794 262.807556,286.527985 
	C264.878510,285.192902 268.023254,284.319427 268.830658,282.441193 
	C271.969543,275.139282 274.358398,267.515472 277.043579,260.017670 
	C277.938263,257.519470 278.553680,254.830704 279.940399,252.635681 
	C280.687439,251.453262 282.796356,251.131226 284.290802,250.421005 
	C284.926849,251.921051 286.257904,253.523575 286.055023,254.899963 
	C285.625397,257.814178 284.395355,260.610382 283.490265,263.465454 
	C293.441437,265.532562 293.989044,266.828857 292.104187,282.325989 
	C294.836273,279.128906 297.738464,276.058228 300.240631,272.690338 
	C301.907471,270.446777 302.557678,267.311096 304.503723,265.457245 
	C305.932159,264.096497 308.724335,264.167236 310.908722,263.600037 
	C311.182709,265.615906 311.522644,267.625732 311.708740,269.649689 
	C311.844360,271.125092 311.391357,272.761169 311.875763,274.077148 
	C313.111908,277.435272 314.725769,280.654388 316.848633,285.407074 
	C319.261871,280.026947 321.329346,275.417633 323.010864,271.668823 
	C321.565430,269.599670 319.716248,268.061127 319.962311,267.015900 
	C320.250885,265.790253 322.396088,265.035706 323.670807,263.996765 
	C324.573944,263.260651 325.665558,262.537720 326.150635,261.551880 
	C327.171509,259.477142 327.887268,257.246887 328.657288,255.055511 
	C329.556458,252.496429 330.393341,249.405060 333.901611,250.464233 
	C337.653961,251.597122 336.173859,254.582214 335.320465,257.105652 
	C334.629395,259.149017 333.956390,261.198517 333.209473,263.443237 
	C334.485870,263.894897 335.793732,264.357697 337.485870,265.334900 
	C336.359802,267.202820 334.894592,268.611908 333.322815,269.889893 
	C332.311859,270.711914 330.591187,271.096649 330.147064,272.101166 
	C328.614960,275.566162 327.376556,279.180054 326.310883,282.820496 
	C325.996887,283.893097 326.215057,285.726013 326.932098,286.332794 
	C327.711578,286.992432 329.649231,287.133453 330.559174,286.603333 
	C332.205536,285.644165 334.045105,284.276459 334.777771,282.624268 
	C337.249298,277.050751 340.993866,271.659790 338.806152,264.990936 
	C340.330200,263.670563 341.840332,261.348175 343.382416,261.326752 
	C344.774811,261.307495 346.175781,263.832825 347.623688,265.181549 
	C348.521851,266.018219 349.414856,266.943665 350.481415,267.502472 
	C356.293701,270.547791 357.059387,272.420563 354.922302,278.708069 
	C354.047089,281.283081 353.249969,283.884644 352.417358,286.474121 
	C352.962280,286.792023 353.507202,287.109955 354.052124,287.427856 
	C355.352081,285.786896 357.038147,284.319397 357.869904,282.468048 
	C359.496094,278.848572 360.615601,275.003815 361.998474,271.272156 
	C364.266327,265.152161 367.658600,263.268982 373.943542,264.458496 
	C374.990601,264.656677 376.109100,264.466553 377.194397,264.476349 
	C378.903931,264.491791 381.621613,263.904755 382.101715,264.685852 
	C382.961212,266.084076 382.954956,268.449951 382.458923,270.165070 
	C380.905304,275.536987 378.954651,280.794098 377.044861,286.429016 
	C381.379913,287.364471 383.045715,285.327942 384.058350,282.238281 
	C385.349854,278.297577 386.423340,274.264282 388.017487,270.449158 
	C390.073517,265.528687 395.231110,263.075073 399.799896,264.404816 
	C404.601288,265.802216 406.985260,270.638611 404.597870,275.049957 
	C403.847900,276.435852 401.607025,277.014923 400.048553,277.963287 
	C399.358643,276.512878 398.540619,275.105804 398.029419,273.594910 
	C397.746979,272.760071 397.978821,271.751282 397.978821,270.673035 
	C394.169220,272.378204 389.987305,282.305725 392.406433,284.468506 
	C394.201385,286.073181 397.805237,286.669373 400.332123,286.213013 
	C404.584747,285.445038 410.492676,275.731964 410.259338,271.212891 
	C410.244720,270.929535 410.352692,270.574463 410.220459,270.372955 
	C409.284973,268.947418 408.301605,267.553284 407.333496,266.149170 
	C409.050842,265.378784 411.347656,265.050476 412.351013,263.735321 
	C413.891083,261.716736 414.470123,258.985657 415.588348,256.619019 
	C416.889862,253.864487 416.910858,248.906052 421.670868,250.674011 
	C426.246613,252.373520 422.819183,255.983414 422.214203,258.763245 
	C421.898804,260.212463 421.329224,261.606354 420.960358,262.757263 
	C422.489441,264.164917 423.852722,265.419922 425.216003,266.674927 
	C423.448853,267.763580 421.648071,268.802368 419.929047,269.962280 
	C419.091278,270.527588 418.052338,271.178650 417.713531,272.032532 
	C416.306580,275.578400 415.013092,279.181702 413.945343,282.841949 
	C413.632690,283.913666 413.787231,285.750305 414.480713,286.320496 
	C415.267273,286.967255 417.317810,287.128784 418.079285,286.541840 
	C419.837128,285.186920 421.580811,283.464020 422.540649,281.503784 
	C424.061920,278.396942 424.863708,274.945801 426.105255,271.691956 
	C427.642242,267.663818 430.563324,265.137604 434.820892,264.270905 
	C442.607422,262.685791 448.033356,268.485321 445.766418,276.054810 
	C445.162170,278.072296 444.132660,279.962433 443.298370,281.911011 
	C443.651520,282.308990 444.004700,282.706970 444.357849,283.104950 
	C446.135742,281.627350 448.612549,280.493042 449.542938,278.599091 
	C451.359070,274.902222 453.866882,271.266846 452.264130,266.446686 
	C451.847839,265.194550 454.095215,262.272034 455.779266,261.416962 
	C456.707062,260.945862 459.107422,263.046936 460.657928,264.231781 
	C461.952393,265.221039 462.776306,266.927856 464.155365,267.686493 
	C469.305847,270.519745 470.171082,272.479980 468.269104,278.213348 
	C467.486298,280.572937 466.694794,282.930817 465.989746,285.313873 
	C465.868805,285.722687 466.163330,286.254364 467.479919,287.551697 
	C469.210541,285.048309 471.236206,282.692535 472.584412,279.997803 
	C473.801880,277.564392 475.239166,275.724640 477.774689,277.278503 
	C478.643616,277.811035 478.831970,280.973053 478.119324,282.265472 
	C476.392487,285.397125 474.312622,288.526215 471.704559,290.928375 
	C468.818451,293.586609 465.079712,293.988220 461.598572,291.503540 
	C458.153412,289.044556 458.267609,285.652893 459.404907,282.089600 
	C459.909241,280.509399 460.817566,278.984436 460.953796,277.384277 
	C461.059021,276.148712 460.246582,274.835022 459.842102,273.556030 
	C459.356415,273.584930 458.870758,273.613800 458.385071,273.642700 
	C457.838989,275.110077 457.273590,276.570587 456.750153,278.045990 
	C454.185974,285.273773 450.590790,287.898132 442.796844,288.517670 
	C441.659760,288.608063 440.442719,289.378418 439.516235,290.141815 
	C435.476410,293.470551 431.183746,293.666046 426.426208,291.860992 
	C424.918152,291.288849 423.047180,291.555603 421.349915,291.624939 
	C418.133331,291.756348 414.533875,293.029510 411.807281,291.977814 
	C408.399689,290.663452 405.682678,289.632629 402.463898,291.893677 
	C401.692413,292.435608 400.516357,292.829742 399.618561,292.691772 
	C395.016907,291.984619 390.012146,289.525970 385.975861,290.650360 
	C381.208130,291.978516 377.188354,294.190430 372.379181,291.257599 
	C371.738464,290.866882 370.376984,291.847015 369.338837,291.881989 
	C366.647491,291.972595 363.950348,291.888245 361.255493,291.877502 
	C359.928619,291.872223 358.436646,291.478119 357.305511,291.948303 
	C353.768524,293.418488 350.448883,293.605713 347.544189,290.863953 
	C344.518585,288.008057 345.399323,284.665192 346.409729,281.134125 
	C347.081635,278.786163 350.378967,275.787903 345.252838,273.367065 
	C344.469025,275.345551 343.907257,277.192627 343.033661,278.878113 
	C341.294739,282.233093 339.833008,285.878998 337.436340,288.710205 
	C334.108215,292.641693 329.311035,294.555511 324.430878,292.152161 
	C320.985992,290.455627 318.419220,290.824524 314.959961,291.888245 
	C307.837646,294.078339 300.728333,294.578583 294.294373,288.964752 
	C292.957245,287.798035 288.704529,288.156738 287.110016,289.442566 
	C282.375824,293.260193 277.832001,294.149689 272.428375,291.317169 
	C271.522125,290.842102 269.933380,290.869385 269.016327,291.347717 
	C264.017975,293.954895 259.443298,293.552155 254.936096,289.695526 
	C249.668488,293.196259 244.215637,294.990356 238.508759,289.605530 
M245.164886,283.342377 
	C248.583893,286.414062 251.786865,285.804596 253.824677,281.107361 
	C256.192230,275.650055 257.933044,269.923706 260.053955,264.355316 
	C261.095856,261.619843 261.663605,259.074921 258.207916,257.792114 
	C254.891006,256.560822 253.135513,258.711395 252.192078,261.365265 
	C249.699158,268.377716 247.427490,275.468872 245.164886,283.342377 
M430.003723,286.625702 
	C431.607941,286.453674 433.212158,286.281647 435.451080,286.041565 
	C432.669525,281.190155 432.716644,278.048950 437.659576,276.104950 
	C438.596283,275.736542 438.937347,273.326111 439.102631,271.808777 
	C439.160736,271.275208 437.743469,269.990173 437.218140,270.099243 
	C435.869995,270.379211 433.839447,270.969055 433.506195,271.929382 
	C431.908051,276.534851 430.782288,281.304230 430.003723,286.625702 
M369.793976,285.230469 
	C371.046082,281.639679 372.480835,278.096680 373.439972,274.429260 
	C373.731232,273.315582 372.708923,271.858429 372.288239,270.558563 
	C371.190247,271.325836 369.526703,271.860260 369.097443,272.902863 
	C367.652527,276.412262 366.544861,280.074799 365.546509,283.743591 
	C365.304352,284.633514 365.976288,285.772217 366.227875,286.796509 
	C367.249359,286.468292 368.270844,286.140045 369.793976,285.230469 
M281.184998,285.771484 
	C280.609344,281.487762 279.685059,277.176300 285.148499,274.924255 
	C285.747925,274.677185 285.348480,272.006775 285.412323,270.460327 
	C283.853241,270.929199 281.427246,270.940521 280.894043,271.950867 
	C279.140137,275.274017 277.980591,278.928192 276.764984,282.513611 
	C275.355011,286.672302 275.995758,287.251953 281.184998,285.771484 
M305.803253,287.081604 
	C308.696533,283.467316 308.713684,283.182190 306.758362,280.139557 
	C305.196625,282.177704 303.454315,284.451508 301.518646,286.977692 
	C302.458282,287.065338 303.785675,287.189117 305.803253,287.081604 
z"/>
<path fill="#090909" opacity="1.000000" stroke="none" 
	d="
M253.913849,197.770630 
	C255.182556,194.107941 255.925888,190.568863 257.680603,187.634613 
	C258.806396,185.752029 261.656891,183.375412 263.321777,183.657227 
	C266.820343,184.249420 266.100525,187.408585 265.107086,190.111679 
	C262.186127,198.059296 259.225983,205.996017 256.538818,214.023224 
	C255.987518,215.670074 256.555389,217.691574 256.607361,219.540375 
	C258.402496,218.956497 260.679626,218.860580 261.880157,217.674728 
	C263.697815,215.879242 265.144135,213.472473 266.081757,211.065781 
	C268.852844,203.952988 271.296173,196.712524 273.870209,189.522903 
	C274.205719,188.585831 274.282867,187.269791 274.952179,186.794022 
	C276.744720,185.519897 278.793976,184.606934 280.741241,183.550491 
	C281.260315,185.543884 282.684845,187.830017 282.150482,189.482849 
	C278.860565,199.658905 275.128479,209.692001 271.543488,219.772659 
	C271.857361,220.109924 272.171265,220.447189 272.485138,220.784454 
	C274.338196,218.835815 276.669739,217.151688 277.928497,214.874527 
	C279.674347,211.716110 280.053802,207.727768 282.056885,204.807022 
	C284.069305,201.872604 287.023376,198.578049 290.180084,197.729065 
	C293.092133,196.945877 297.697784,198.282990 299.910828,200.404175 
	C301.668640,202.089050 301.276703,206.378860 301.185486,209.492966 
	C301.132080,211.316269 299.797150,213.102020 299.038696,214.904663 
	C299.388428,215.316849 299.738190,215.729019 300.087921,216.141205 
	C301.766754,214.666367 304.032715,213.497726 304.996368,211.649933 
	C306.743713,208.299515 307.393677,204.375992 309.147125,201.029938 
	C310.017914,199.368195 312.523315,197.220779 313.934967,197.452408 
	C317.309723,198.006134 316.639557,201.042465 315.817719,203.487152 
	C314.044098,208.763138 312.152924,213.999619 310.054810,219.979080 
	C315.041016,219.739273 316.443665,216.843109 317.582306,214.067230 
	C319.344543,209.770935 320.427917,205.176666 322.414337,201.001434 
	C323.208191,199.332809 325.865448,197.190781 327.275513,197.448349 
	C330.569580,198.050034 329.958740,200.902924 329.029144,203.463516 
	C327.125977,208.705963 325.333923,213.988754 322.990723,220.703156 
	C325.607239,219.644608 327.329712,219.503021 327.974548,218.595612 
	C331.795868,213.218460 335.079559,207.690155 334.633453,200.540436 
	C334.505096,198.482742 336.712067,196.279327 337.848328,194.142715 
	C339.565460,195.307739 341.335114,196.403885 342.982025,197.660934 
	C344.164307,198.563385 345.027374,199.971191 346.300995,200.651520 
	C351.487335,203.421890 352.453735,205.550476 350.628479,211.134918 
	C349.733704,213.872406 348.790985,216.594177 347.869995,219.323074 
	C348.297791,219.633118 348.725616,219.943176 349.153442,220.253235 
	C350.427063,219.049789 351.909668,217.997650 352.919220,216.603043 
	C354.074219,215.007462 354.510773,212.824036 355.829285,211.438065 
	C356.730377,210.490875 358.606812,210.471588 360.047180,210.037445 
	C360.409149,211.290161 361.375885,212.749237 361.030762,213.760635 
	C359.334534,218.731354 356.941559,223.623108 351.516602,225.135208 
	C349.043701,225.824493 345.287750,225.298233 343.417603,223.749176 
	C341.758667,222.375122 341.488129,218.837952 341.393494,216.227081 
	C341.326263,214.371445 342.847168,212.508804 343.129913,210.572021 
	C343.315186,209.303238 342.555328,207.896484 342.218750,206.551514 
	C341.749481,206.648712 341.280182,206.745926 340.810913,206.843124 
	C338.929840,211.015900 337.412354,215.404633 335.089722,219.315125 
	C330.677155,226.744247 324.644226,227.838898 317.490936,223.017868 
	C311.194977,227.274811 309.600159,226.858871 303.889954,222.602127 
	C302.152496,221.306915 297.988983,221.356903 296.059845,222.572876 
	C289.272552,226.850937 286.637878,227.289215 280.057770,223.442047 
	C276.754974,225.116058 273.473450,226.398560 270.655457,228.350327 
	C268.964600,229.521408 267.585968,231.568832 266.787415,233.517609 
	C264.885925,238.157791 262.710205,242.235474 257.244110,243.417603 
	C251.829956,244.588470 247.226456,242.639496 245.631393,238.284500 
	C244.061722,233.998840 246.122025,230.354279 251.542099,227.836563 
	C252.288513,227.489853 253.042664,227.159821 253.328842,227.031052 
	C251.427521,224.845551 248.583984,222.910675 247.860214,220.371567 
	C247.130432,217.811310 248.200211,214.560837 249.026428,211.774323 
	C250.393158,207.164810 252.197266,202.684982 253.913849,197.770630 
M290.937225,210.406158 
	C292.072296,209.758728 293.881073,209.336273 294.189453,208.412796 
	C294.690826,206.911285 294.210510,205.081940 294.144531,203.390976 
	C292.524567,203.806915 289.900574,203.760712 289.459381,204.719238 
	C287.602386,208.753632 286.318512,213.064453 285.037292,217.337784 
	C284.842224,217.988510 285.604095,219.500519 286.207031,219.684540 
	C287.164276,219.976700 288.595734,219.801025 289.376862,219.219345 
	C289.938721,218.800934 289.815521,217.403503 289.913757,216.434265 
	C290.098328,214.612778 290.222015,212.785141 290.937225,210.406158 
z"/>
<path fill="#F4F4F4" opacity="1.000000" stroke="none" 
	d="
M338.541260,265.005127 
	C340.993866,271.659790 337.249298,277.050751 334.777771,282.624268 
	C334.045105,284.276459 332.205536,285.644165 330.559174,286.603333 
	C329.649231,287.133453 327.711578,286.992432 326.932098,286.332794 
	C326.215057,285.726013 325.996887,283.893097 326.310883,282.820496 
	C327.376556,279.180054 328.614960,275.566162 330.147064,272.101166 
	C330.591187,271.096649 332.311859,270.711914 333.322815,269.889893 
	C334.894592,268.611908 336.359802,267.202820 337.811371,265.476440 
	C337.927155,265.075500 338.101776,265.047424 338.541260,265.005127 
z"/>
<path fill="#E82026" opacity="1.000000" stroke="none" 
	d="
M496.131775,195.174835 
	C495.353394,196.747665 494.654907,198.119080 493.548340,198.941238 
	C493.259430,199.155899 491.190277,197.838821 490.863403,196.902466 
	C490.514526,195.902954 491.260162,194.521393 491.528015,193.306625 
	C493.038452,193.793884 494.548889,194.281143 496.131775,195.174835 
z"/>
<path fill="#EEEEEE" opacity="1.000000" stroke="none" 
	d="
M9.998585,349.000000 
	C9.998585,269.527100 9.998240,190.554184 9.999225,111.581284 
	C9.999307,105.003090 10.003481,104.997353 16.369793,104.997223 
	C85.179520,104.995811 153.989410,105.056885 222.798645,104.873573 
	C227.927246,104.859917 229.125290,106.225410 229.116058,111.250435 
	C228.956573,198.053696 228.962341,284.857391 229.104309,371.660706 
	C229.112259,376.523163 228.173615,378.145050 222.879700,378.129608 
	C153.903946,377.928802 84.927299,377.946320 15.951324,378.103485 
	C11.108792,378.114563 9.639847,376.789001 9.893984,371.986328 
	C10.289599,364.509979 9.998593,356.997284 9.998585,349.000000 
M181.486572,219.001236 
	C133.351532,219.001236 85.216507,219.000046 37.081474,219.006851 
	C35.585251,219.007065 33.764919,218.573990 32.671875,219.260406 
	C31.183912,220.194855 29.333031,222.015198 29.335697,223.452515 
	C29.338425,224.923401 31.144941,226.769440 32.628513,227.732269 
	C33.702450,228.429260 35.538300,227.992706 37.034386,227.992905 
	C88.000908,227.999954 138.967438,227.998795 189.933960,227.998657 
	C190.933304,227.998657 192.208664,228.390381 192.878891,227.920258 
	C194.697525,226.644577 196.259583,225.003113 197.923370,223.506699 
	C196.273026,222.005997 194.813812,219.601532 192.930298,219.203186 
	C189.582138,218.495056 185.976913,219.002350 181.486572,219.001236 
M29.581236,295.024445 
	C28.417704,300.137573 31.480768,301.006866 35.516918,301.005981 
	C84.151672,300.995361 132.786453,300.984070 181.421158,301.032990 
	C184.625015,301.036194 187.473969,300.296082 187.569122,296.800964 
	C187.668625,293.146027 184.999283,291.958801 181.458405,291.962921 
	C132.823715,292.019531 84.188881,291.975311 35.554432,292.097961 
	C33.680447,292.102692 31.810066,293.534790 29.581236,295.024445 
M107.499931,335.183899 
	C129.496643,335.183899 151.493347,335.189819 173.490051,335.172058 
	C175.149399,335.170715 177.071442,335.489197 178.396240,334.776184 
	C179.806885,334.016998 181.595245,332.139648 181.504181,330.873810 
	C181.392059,329.315063 179.761475,327.510925 178.305511,326.521820 
	C177.245712,325.801849 175.405472,326.158295 173.913147,326.157898 
	C127.920082,326.145142 81.927017,326.145569 35.933960,326.156464 
	C34.439835,326.156799 32.618507,325.780090 31.531599,326.481232 
	C30.057936,327.431854 28.242321,329.259735 28.250269,330.702087 
	C28.258137,332.130096 30.099579,333.993042 31.602016,334.832672 
	C32.898613,335.557312 34.849052,335.173553 36.510483,335.174530 
	C59.840290,335.188232 83.170113,335.183868 107.499931,335.183899 
M159.298920,150.385101 
	C157.516815,149.723526 155.736237,148.489151 153.952393,148.484436 
	C112.999359,148.376190 72.045959,148.402710 31.092625,148.401001 
	C28.010036,148.400864 25.149965,149.049042 25.055470,152.764664 
	C24.952539,156.811981 28.081509,157.569473 31.258911,157.572433 
	C72.212189,157.610596 113.165527,157.595459 154.118851,157.593430 
	C154.285309,157.593414 154.453598,157.603073 154.617935,157.582932 
	C158.501129,157.106995 160.982254,155.525223 159.298920,150.385101 
M144.449371,307.795746 
	C107.674751,307.796204 70.900124,307.806702 34.125530,307.778992 
	C31.025791,307.776642 28.185463,308.229980 28.071051,312.005219 
	C27.957403,315.755157 30.687363,316.570770 33.828472,316.554169 
	C34.660435,316.549774 35.492466,316.559723 36.324463,316.559723 
	C74.596687,316.560211 112.868919,316.561157 151.141144,316.557068 
	C152.471268,316.556915 154.114182,316.989197 155.063065,316.374084 
	C156.768433,315.268646 158.057266,313.520630 159.520142,312.041077 
	C157.983597,310.633881 156.632767,308.400024 154.869110,308.003845 
	C151.857788,307.327423 148.587540,307.803711 144.449371,307.795746 
M106.499954,247.852402 
	C124.142220,247.852402 141.784500,247.862656 159.426712,247.835526 
	C161.075699,247.832993 163.109787,248.141510 164.272858,247.322540 
	C165.641144,246.359100 166.977112,244.318253 166.967712,242.752792 
	C166.960068,241.477859 165.144913,239.892853 163.761902,239.055115 
	C162.769882,238.454224 161.168213,238.822052 159.838531,238.821823 
	C118.728729,238.815186 77.618919,238.815811 36.509113,238.819992 
	C35.344933,238.820114 33.905090,238.449524 33.076702,238.990829 
	C31.574104,239.972717 29.352219,241.563629 29.411652,242.805511 
	C29.490936,244.462250 31.197111,246.384491 32.712322,247.507553 
	C33.710091,248.247116 35.602623,247.842102 37.094559,247.842987 
	C59.896347,247.856491 82.698143,247.852386 106.499954,247.852402 
M26.925934,205.587738 
	C26.765423,210.400528 30.114285,210.820160 33.638660,210.835632 
	C43.802490,210.880264 53.966644,210.852020 64.130669,210.851944 
	C91.790146,210.851761 119.449623,210.854843 147.109100,210.846359 
	C150.420227,210.845352 153.966904,210.548935 154.046616,206.285431 
	C154.129364,201.858353 150.589203,201.798264 147.238174,201.800583 
	C109.414696,201.826828 71.590950,201.767136 33.768272,201.942993 
	C31.524227,201.953430 29.288614,203.777893 26.925934,205.587738 
M142.127335,137.073914 
	C142.816650,135.266800 144.568100,132.478729 143.984695,131.847031 
	C142.560730,130.305222 140.060471,128.949875 137.985458,128.938065 
	C107.022209,128.761795 76.057648,128.815216 45.093399,128.816971 
	C39.766281,128.817276 34.406471,128.500229 29.130810,129.024536 
	C27.417765,129.194778 25.924866,131.580139 24.331274,132.952316 
	C25.745615,134.538818 26.941078,136.456024 28.654772,137.590225 
	C29.716162,138.292709 31.564796,137.846344 33.060062,137.846680 
	C67.353806,137.854416 101.647552,137.860138 135.941269,137.831573 
	C137.747025,137.830063 139.552505,137.522614 142.127335,137.073914 
M94.499832,282.600983 
	C96.496010,282.600983 98.492195,282.601929 100.488373,282.600800 
	C106.643265,282.597229 112.798302,282.616577 118.952988,282.578705 
	C121.972038,282.560150 124.199051,281.453644 124.173264,278.000153 
	C124.147377,274.533661 121.829956,273.543060 118.857552,273.411194 
	C118.027336,273.374359 117.194298,273.399292 116.362556,273.399292 
	C89.580208,273.399170 62.797859,273.395630 36.015518,273.409973 
	C34.524620,273.410767 32.659668,273.033661 31.631035,273.764496 
	C30.104965,274.848816 28.372696,276.705353 28.245796,278.350250 
	C28.149488,279.598633 30.192232,281.463348 31.701986,282.249023 
	C33.036850,282.943726 34.950142,282.589783 36.608135,282.591125 
	C55.572021,282.606293 74.535927,282.600830 94.499832,282.600983 
M26.070623,173.410126 
	C26.612741,176.573746 28.613136,177.854004 31.688496,177.852844 
	C57.134659,177.843277 82.580826,177.842270 108.026985,177.857025 
	C111.159988,177.858841 113.369408,176.494965 113.382622,173.297180 
	C113.395866,170.089584 111.264221,168.785568 108.059036,168.791595 
	C82.612946,168.839539 57.165974,168.739792 31.722116,168.982956 
	C29.861002,169.000732 28.022146,171.347916 26.070623,173.410126 
z"/>
<path fill="#F6F6F6" opacity="1.000000" stroke="none" 
	d="
M245.116333,282.935547 
	C247.427490,275.468872 249.699158,268.377716 252.192078,261.365265 
	C253.135513,258.711395 254.891006,256.560822 258.207916,257.792114 
	C261.663605,259.074921 261.095856,261.619843 260.053955,264.355316 
	C257.933044,269.923706 256.192230,275.650055 253.824677,281.107361 
	C251.786865,285.804596 248.583893,286.414062 245.116333,282.935547 
z"/>
<path fill="#EEEEEE" opacity="1.000000" stroke="none" 
	d="
M429.746216,286.320557 
	C430.782288,281.304230 431.908051,276.534851 433.506195,271.929382 
	C433.839447,270.969055 435.869995,270.379211 437.218140,270.099243 
	C437.743469,269.990173 439.160736,271.275208 439.102631,271.808777 
	C438.937347,273.326111 438.596283,275.736542 437.659576,276.104950 
	C432.716644,278.048950 432.669525,281.190155 435.451080,286.041565 
	C433.212158,286.281647 431.607941,286.453674 429.746216,286.320557 
z"/>
<path fill="#EBEBEB" opacity="1.000000" stroke="none" 
	d="
M369.543152,285.521118 
	C368.270844,286.140045 367.249359,286.468292 366.227875,286.796509 
	C365.976288,285.772217 365.304352,284.633514 365.546509,283.743591 
	C366.544861,280.074799 367.652527,276.412262 369.097443,272.902863 
	C369.526703,271.860260 371.190247,271.325836 372.288239,270.558563 
	C372.708923,271.858429 373.731232,273.315582 373.439972,274.429260 
	C372.480835,278.096680 371.046082,281.639679 369.543152,285.521118 
z"/>
<path fill="#EBEBEB" opacity="1.000000" stroke="none" 
	d="
M280.914917,286.059601 
	C275.995758,287.251953 275.355011,286.672302 276.764984,282.513611 
	C277.980591,278.928192 279.140137,275.274017 280.894043,271.950867 
	C281.427246,270.940521 283.853241,270.929199 285.412323,270.460327 
	C285.348480,272.006775 285.747925,274.677185 285.148499,274.924255 
	C279.685059,277.176300 280.609344,281.487762 280.914917,286.059601 
z"/>
<path fill="#DCDCDC" opacity="1.000000" stroke="none" 
	d="
M305.458160,287.197266 
	C303.785675,287.189117 302.458282,287.065338 301.518646,286.977692 
	C303.454315,284.451508 305.196625,282.177704 306.758362,280.139557 
	C308.713684,283.182190 308.696533,283.467316 305.458160,287.197266 
z"/>
<path fill="#F1F1F1" opacity="1.000000" stroke="none" 
	d="
M290.654114,210.683105 
	C290.222015,212.785141 290.098328,214.612778 289.913757,216.434265 
	C289.815521,217.403503 289.938721,218.800934 289.376862,219.219345 
	C288.595734,219.801025 287.164276,219.976700 286.207031,219.684540 
	C285.604095,219.500519 284.842224,217.988510 285.037292,217.337784 
	C286.318512,213.064453 287.602386,208.753632 289.459381,204.719238 
	C289.900574,203.760712 292.524567,203.806915 294.144531,203.390976 
	C294.210510,205.081940 294.690826,206.911285 294.189453,208.412796 
	C293.881073,209.336273 292.072296,209.758728 290.654114,210.683105 
z"/>
<path fill="#000000" opacity="1.000000" stroke="none" 
	d="
M181.982895,219.001236 
	C185.976913,219.002350 189.582138,218.495056 192.930298,219.203186 
	C194.813812,219.601532 196.273026,222.005997 197.923370,223.506699 
	C196.259583,225.003113 194.697525,226.644577 192.878891,227.920258 
	C192.208664,228.390381 190.933304,227.998657 189.933960,227.998657 
	C138.967438,227.998795 88.000908,227.999954 37.034386,227.992905 
	C35.538300,227.992706 33.702450,228.429260 32.628513,227.732269 
	C31.144941,226.769440 29.338425,224.923401 29.335697,223.452515 
	C29.333031,222.015198 31.183912,220.194855 32.671875,219.260406 
	C33.764919,218.573990 35.585251,219.007065 37.081474,219.006851 
	C85.216507,219.000046 133.351532,219.001236 181.982895,219.001236 
z"/>
<path fill="#010101" opacity="1.000000" stroke="none" 
	d="
M29.759621,294.663086 
	C31.810066,293.534790 33.680447,292.102692 35.554432,292.097961 
	C84.188881,291.975311 132.823715,292.019531 181.458405,291.962921 
	C184.999283,291.958801 187.668625,293.146027 187.569122,296.800964 
	C187.473969,300.296082 184.625015,301.036194 181.421158,301.032990 
	C132.786453,300.984070 84.151672,300.995361 35.516918,301.005981 
	C31.480768,301.006866 28.417704,300.137573 29.759621,294.663086 
z"/>
<path fill="#070707" opacity="1.000000" stroke="none" 
	d="
M106.999924,335.183899 
	C83.170113,335.183868 59.840290,335.188232 36.510483,335.174530 
	C34.849052,335.173553 32.898613,335.557312 31.602016,334.832672 
	C30.099579,333.993042 28.258137,332.130096 28.250269,330.702087 
	C28.242321,329.259735 30.057936,327.431854 31.531599,326.481232 
	C32.618507,325.780090 34.439835,326.156799 35.933960,326.156464 
	C81.927017,326.145569 127.920082,326.145142 173.913147,326.157898 
	C175.405472,326.158295 177.245712,325.801849 178.305511,326.521820 
	C179.761475,327.510925 181.392059,329.315063 181.504181,330.873810 
	C181.595245,332.139648 179.806885,334.016998 178.396240,334.776184 
	C177.071442,335.489197 175.149399,335.170715 173.490051,335.172058 
	C151.493347,335.189819 129.496643,335.183899 106.999924,335.183899 
z"/>
<path fill="#171717" opacity="1.000000" stroke="none" 
	d="
M159.533279,150.711304 
	C160.982254,155.525223 158.501129,157.106995 154.617935,157.582932 
	C154.453598,157.603073 154.285309,157.593414 154.118851,157.593430 
	C113.165527,157.595459 72.212189,157.610596 31.258911,157.572433 
	C28.081509,157.569473 24.952539,156.811981 25.055470,152.764664 
	C25.149965,149.049042 28.010036,148.400864 31.092625,148.401001 
	C72.045959,148.402710 112.999359,148.376190 153.952393,148.484436 
	C155.736237,148.489151 157.516815,149.723526 159.533279,150.711304 
z"/>
<path fill="#0D0D0D" opacity="1.000000" stroke="none" 
	d="
M144.937714,307.795776 
	C148.587540,307.803711 151.857788,307.327423 154.869110,308.003845 
	C156.632767,308.400024 157.983597,310.633881 159.520142,312.041077 
	C158.057266,313.520630 156.768433,315.268646 155.063065,316.374084 
	C154.114182,316.989197 152.471268,316.556915 151.141144,316.557068 
	C112.868919,316.561157 74.596687,316.560211 36.324463,316.559723 
	C35.492466,316.559723 34.660435,316.549774 33.828472,316.554169 
	C30.687363,316.570770 27.957403,315.755157 28.071051,312.005219 
	C28.185463,308.229980 31.025791,307.776642 34.125530,307.778992 
	C70.900124,307.806702 107.674751,307.796204 144.937714,307.795776 
z"/>
<path fill="#070707" opacity="1.000000" stroke="none" 
	d="
M105.999947,247.852402 
	C82.698143,247.852386 59.896347,247.856491 37.094559,247.842987 
	C35.602623,247.842102 33.710091,248.247116 32.712322,247.507553 
	C31.197111,246.384491 29.490936,244.462250 29.411652,242.805511 
	C29.352219,241.563629 31.574104,239.972717 33.076702,238.990829 
	C33.905090,238.449524 35.344933,238.820114 36.509113,238.819992 
	C77.618919,238.815811 118.728729,238.815186 159.838531,238.821823 
	C161.168213,238.822052 162.769882,238.454224 163.761902,239.055115 
	C165.144913,239.892853 166.960068,241.477859 166.967712,242.752792 
	C166.977112,244.318253 165.641144,246.359100 164.272858,247.322540 
	C163.109787,248.141510 161.075699,247.832993 159.426712,247.835526 
	C141.784500,247.862656 124.142220,247.852402 105.999947,247.852402 
z"/>
<path fill="#070707" opacity="1.000000" stroke="none" 
	d="
M26.987507,205.172974 
	C29.288614,203.777893 31.524227,201.953430 33.768272,201.942993 
	C71.590950,201.767136 109.414696,201.826828 147.238174,201.800583 
	C150.589203,201.798264 154.129364,201.858353 154.046616,206.285431 
	C153.966904,210.548935 150.420227,210.845352 147.109100,210.846359 
	C119.449623,210.854843 91.790146,210.851761 64.130669,210.851944 
	C53.966644,210.852020 43.802490,210.880264 33.638660,210.835632 
	C30.114285,210.820160 26.765423,210.400528 26.987507,205.172974 
z"/>
<path fill="#070707" opacity="1.000000" stroke="none" 
	d="
M141.742737,137.215759 
	C139.552505,137.522614 137.747025,137.830063 135.941269,137.831573 
	C101.647552,137.860138 67.353806,137.854416 33.060062,137.846680 
	C31.564796,137.846344 29.716162,138.292709 28.654772,137.590225 
	C26.941078,136.456024 25.745615,134.538818 24.331274,132.952316 
	C25.924866,131.580139 27.417765,129.194778 29.130810,129.024536 
	C34.406471,128.500229 39.766281,128.817276 45.093399,128.816971 
	C76.057648,128.815216 107.022209,128.761795 137.985458,128.938065 
	C140.060471,128.949875 142.560730,130.305222 143.984695,131.847031 
	C144.568100,132.478729 142.816650,135.266800 141.742737,137.215759 
z"/>
<path fill="#171717" opacity="1.000000" stroke="none" 
	d="
M93.999832,282.600952 
	C74.535927,282.600830 55.572021,282.606293 36.608135,282.591125 
	C34.950142,282.589783 33.036850,282.943726 31.701986,282.249023 
	C30.192232,281.463348 28.149488,279.598633 28.245796,278.350250 
	C28.372696,276.705353 30.104965,274.848816 31.631035,273.764496 
	C32.659668,273.033661 34.524620,273.410767 36.015518,273.409973 
	C62.797859,273.395630 89.580208,273.399170 116.362556,273.399292 
	C117.194298,273.399292 118.027336,273.374359 118.857552,273.411194 
	C121.829956,273.543060 124.147377,274.533661 124.173264,278.000153 
	C124.199051,281.453644 121.972038,282.560150 118.952988,282.578705 
	C112.798302,282.616577 106.643265,282.597229 100.488373,282.600800 
	C98.492195,282.601929 96.496010,282.600983 93.999832,282.600952 
z"/>
<path fill="#070707" opacity="1.000000" stroke="none" 
	d="
M26.121784,173.011124 
	C28.022146,171.347916 29.861002,169.000732 31.722116,168.982956 
	C57.165974,168.739792 82.612946,168.839539 108.059036,168.791595 
	C111.264221,168.785568 113.395866,170.089584 113.382622,173.297180 
	C113.369408,176.494965 111.159988,177.858841 108.026985,177.857025 
	C82.580826,177.842270 57.134659,177.843277 31.688496,177.852844 
	C28.613136,177.854004 26.612741,176.573746 26.121784,173.011124 
z"/>
</svg>